<mxfile host="app.diagrams.net" modified="2021-11-28T09:08:39.670Z" agent="5.0 (Windows NT 10.0; Win64; x64) AppleWebKit/537.36 (KHTML, like Gecko) Chrome/91.0.4472.77 Safari/537.36" etag="_2sJkZAWm9dZPxA3AtVY" version="15.8.6" type="github">
  <diagram id="mdaRkNBNNqWgNooVkEjc" name="Page-1">
    <mxGraphModel dx="2080" dy="1102" grid="0" gridSize="10" guides="1" tooltips="1" connect="1" arrows="1" fold="1" page="0" pageScale="1" pageWidth="1920" pageHeight="1200" math="0" shadow="0">
      <root>
        <mxCell id="0" />
        <mxCell id="1" parent="0" />
        <mxCell id="Yq4_w4Ubh7RNNqfslYi_-1" value="" style="shape=tee;whiteSpace=wrap;html=1;" vertex="1" parent="1">
          <mxGeometry x="180" y="300" width="120" height="360" as="geometry" />
        </mxCell>
        <mxCell id="Yq4_w4Ubh7RNNqfslYi_-2" value="" style="endArrow=classic;startArrow=classic;html=1;rounded=0;strokeWidth=3;" edge="1" parent="1">
          <mxGeometry width="50" height="50" relative="1" as="geometry">
            <mxPoint x="210" y="660" as="sourcePoint" />
            <mxPoint x="210" y="320" as="targetPoint" />
          </mxGeometry>
        </mxCell>
        <mxCell id="Yq4_w4Ubh7RNNqfslYi_-3" value="&lt;font style=&quot;font-size: 22px&quot;&gt;电线杆高度&lt;b&gt;8m&lt;/b&gt;&lt;/font&gt;" style="edgeLabel;html=1;align=center;verticalAlign=middle;resizable=0;points=[];rotation=-90;" vertex="1" connectable="0" parent="Yq4_w4Ubh7RNNqfslYi_-2">
          <mxGeometry x="0.2222" y="3" relative="1" as="geometry">
            <mxPoint x="3" y="35" as="offset" />
          </mxGeometry>
        </mxCell>
        <mxCell id="Yq4_w4Ubh7RNNqfslYi_-5" value="" style="shape=tee;whiteSpace=wrap;html=1;" vertex="1" parent="1">
          <mxGeometry x="1020" y="300" width="120" height="360" as="geometry" />
        </mxCell>
        <mxCell id="Yq4_w4Ubh7RNNqfslYi_-6" value="" style="endArrow=classic;startArrow=classic;html=1;rounded=0;strokeWidth=3;" edge="1" parent="1">
          <mxGeometry width="50" height="50" relative="1" as="geometry">
            <mxPoint x="1130" y="660" as="sourcePoint" />
            <mxPoint x="1130" y="320" as="targetPoint" />
          </mxGeometry>
        </mxCell>
        <mxCell id="Yq4_w4Ubh7RNNqfslYi_-7" value="&lt;font style=&quot;font-size: 22px&quot;&gt;电线杆高度&lt;b&gt;8m&lt;/b&gt;&lt;/font&gt;" style="edgeLabel;html=1;align=center;verticalAlign=middle;resizable=0;points=[];rotation=-90;" vertex="1" connectable="0" parent="Yq4_w4Ubh7RNNqfslYi_-6">
          <mxGeometry x="0.2222" y="3" relative="1" as="geometry">
            <mxPoint x="-17" y="48" as="offset" />
          </mxGeometry>
        </mxCell>
        <mxCell id="Yq4_w4Ubh7RNNqfslYi_-9" value="&lt;font face=&quot;Times New Roman&quot; style=&quot;font-size: 25px&quot;&gt;塔杆间距&lt;b&gt;50m&lt;/b&gt;&lt;/font&gt;" style="text;html=1;strokeColor=none;fillColor=none;align=center;verticalAlign=middle;whiteSpace=wrap;rounded=0;fontSize=22;" vertex="1" parent="1">
          <mxGeometry x="510" y="620" width="190" height="10" as="geometry" />
        </mxCell>
        <mxCell id="Yq4_w4Ubh7RNNqfslYi_-12" value="" style="endArrow=none;html=1;rounded=0;fontFamily=Times New Roman;fontSize=25;strokeWidth=7;entryX=0;entryY=0;entryDx=70;entryDy=360;entryPerimeter=0;exitX=0;exitY=0;exitDx=50;exitDy=360;exitPerimeter=0;" edge="1" parent="1" source="Yq4_w4Ubh7RNNqfslYi_-1" target="Yq4_w4Ubh7RNNqfslYi_-5">
          <mxGeometry width="50" height="50" relative="1" as="geometry">
            <mxPoint x="240" y="710" as="sourcePoint" />
            <mxPoint x="290" y="660" as="targetPoint" />
          </mxGeometry>
        </mxCell>
        <mxCell id="Yq4_w4Ubh7RNNqfslYi_-16" value="地面" style="edgeLabel;html=1;align=center;verticalAlign=middle;resizable=0;points=[];fontSize=25;fontFamily=Times New Roman;" vertex="1" connectable="0" parent="Yq4_w4Ubh7RNNqfslYi_-12">
          <mxGeometry x="-0.272" y="3" relative="1" as="geometry">
            <mxPoint as="offset" />
          </mxGeometry>
        </mxCell>
        <mxCell id="Yq4_w4Ubh7RNNqfslYi_-15" value="" style="pointerEvents=1;verticalLabelPosition=bottom;shadow=0;dashed=0;align=center;html=1;verticalAlign=top;shape=mxgraph.electrical.signal_sources.signal_ground;fontFamily=Times New Roman;fontSize=25;" vertex="1" parent="1">
          <mxGeometry x="270" y="660" width="45" height="30" as="geometry" />
        </mxCell>
        <mxCell id="Yq4_w4Ubh7RNNqfslYi_-18" value="" style="endArrow=classic;startArrow=classic;html=1;rounded=0;fontFamily=Times New Roman;fontSize=25;strokeWidth=2;dashed=1;dashPattern=1 4;" edge="1" parent="1">
          <mxGeometry width="50" height="50" relative="1" as="geometry">
            <mxPoint x="310" y="641" as="sourcePoint" />
            <mxPoint x="1021" y="641" as="targetPoint" />
          </mxGeometry>
        </mxCell>
        <mxCell id="Yq4_w4Ubh7RNNqfslYi_-24" value="" style="shape=image;html=1;verticalAlign=top;verticalLabelPosition=bottom;labelBackgroundColor=#ffffff;imageAspect=0;aspect=fixed;image=https://cdn2.iconfinder.com/data/icons/web-development-and-studio/512/118_forest_camping_jungle_tree_pines_camping_camp-128.png;fontFamily=Times New Roman;fontSize=25;" vertex="1" parent="1">
          <mxGeometry x="250" y="360" width="280" height="280" as="geometry" />
        </mxCell>
        <mxCell id="Yq4_w4Ubh7RNNqfslYi_-25" value="" style="shape=image;html=1;verticalAlign=top;verticalLabelPosition=bottom;labelBackgroundColor=#ffffff;imageAspect=0;aspect=fixed;image=https://cdn2.iconfinder.com/data/icons/web-development-and-studio/512/118_forest_camping_jungle_tree_pines_camping_camp-128.png;fontFamily=Times New Roman;fontSize=25;" vertex="1" parent="1">
          <mxGeometry x="470" y="360" width="280" height="280" as="geometry" />
        </mxCell>
        <mxCell id="Yq4_w4Ubh7RNNqfslYi_-26" value="" style="shape=image;html=1;verticalAlign=top;verticalLabelPosition=bottom;labelBackgroundColor=#ffffff;imageAspect=0;aspect=fixed;image=https://cdn2.iconfinder.com/data/icons/web-development-and-studio/512/118_forest_camping_jungle_tree_pines_camping_camp-128.png;fontFamily=Times New Roman;fontSize=25;" vertex="1" parent="1">
          <mxGeometry x="670" y="370" width="270" height="270" as="geometry" />
        </mxCell>
        <mxCell id="Yq4_w4Ubh7RNNqfslYi_-27" value="" style="shape=image;html=1;verticalAlign=top;verticalLabelPosition=bottom;labelBackgroundColor=#ffffff;imageAspect=0;aspect=fixed;image=https://cdn2.iconfinder.com/data/icons/web-development-and-studio/512/118_forest_camping_jungle_tree_pines_camping_camp-128.png;fontFamily=Times New Roman;fontSize=25;" vertex="1" parent="1">
          <mxGeometry x="820" y="380" width="260" height="260" as="geometry" />
        </mxCell>
        <mxCell id="Yq4_w4Ubh7RNNqfslYi_-28" value="" style="endArrow=none;html=1;rounded=0;fontFamily=Times New Roman;fontSize=25;strokeWidth=3;fillColor=#f8cecc;strokeColor=#b85450;" edge="1" parent="1">
          <mxGeometry width="50" height="50" relative="1" as="geometry">
            <mxPoint x="310" y="310" as="sourcePoint" />
            <mxPoint x="990" y="310" as="targetPoint" />
            <Array as="points">
              <mxPoint x="480" y="340" />
              <mxPoint x="650" y="340" />
              <mxPoint x="840" y="340" />
            </Array>
          </mxGeometry>
        </mxCell>
        <mxCell id="Yq4_w4Ubh7RNNqfslYi_-31" value="" style="endArrow=none;html=1;rounded=0;fontFamily=Times New Roman;fontSize=25;strokeWidth=3;fillColor=#f8cecc;strokeColor=#b85450;" edge="1" parent="1">
          <mxGeometry width="50" height="50" relative="1" as="geometry">
            <mxPoint x="315" y="290" as="sourcePoint" />
            <mxPoint x="995" y="290" as="targetPoint" />
            <Array as="points">
              <mxPoint x="485" y="320" />
              <mxPoint x="655" y="320" />
              <mxPoint x="845" y="320" />
            </Array>
          </mxGeometry>
        </mxCell>
        <mxCell id="Yq4_w4Ubh7RNNqfslYi_-33" value="" style="endArrow=none;dashed=1;html=1;rounded=0;fontFamily=Times New Roman;fontSize=25;strokeWidth=5;fillColor=#e51400;strokeColor=#B20000;" edge="1" parent="1">
          <mxGeometry width="50" height="50" relative="1" as="geometry">
            <mxPoint x="284" y="378" as="sourcePoint" />
            <mxPoint x="1000" y="378" as="targetPoint" />
          </mxGeometry>
        </mxCell>
        <mxCell id="Yq4_w4Ubh7RNNqfslYi_-34" value="" style="endArrow=none;html=1;rounded=0;fontFamily=Times New Roman;fontSize=25;strokeWidth=3;dashed=1;" edge="1" parent="1">
          <mxGeometry width="50" height="50" relative="1" as="geometry">
            <mxPoint x="720" y="380" as="sourcePoint" />
            <mxPoint x="720" y="160" as="targetPoint" />
          </mxGeometry>
        </mxCell>
        <mxCell id="Yq4_w4Ubh7RNNqfslYi_-35" value="" style="endArrow=classic;startArrow=classic;html=1;rounded=0;fontFamily=Times New Roman;fontSize=25;strokeWidth=3;" edge="1" parent="1">
          <mxGeometry width="50" height="50" relative="1" as="geometry">
            <mxPoint x="290" y="270" as="sourcePoint" />
            <mxPoint x="720" y="270" as="targetPoint" />
          </mxGeometry>
        </mxCell>
        <mxCell id="Yq4_w4Ubh7RNNqfslYi_-36" value="max-distance:30m" style="edgeLabel;html=1;align=center;verticalAlign=middle;resizable=0;points=[];fontSize=25;fontFamily=Times New Roman;" vertex="1" connectable="0" parent="Yq4_w4Ubh7RNNqfslYi_-35">
          <mxGeometry x="-0.2216" y="2" relative="1" as="geometry">
            <mxPoint x="75" as="offset" />
          </mxGeometry>
        </mxCell>
        <mxCell id="Yq4_w4Ubh7RNNqfslYi_-37" value="c" style="triangle;whiteSpace=wrap;html=1;fontFamily=Times New Roman;fontSize=25;" vertex="1" parent="1">
          <mxGeometry x="260" y="245" width="30" height="50" as="geometry" />
        </mxCell>
        <mxCell id="Yq4_w4Ubh7RNNqfslYi_-38" value="" style="endArrow=classic;html=1;rounded=0;fontFamily=Times New Roman;fontSize=25;strokeWidth=3;fillColor=#d5e8d4;strokeColor=#82b366;exitX=1;exitY=0.5;exitDx=0;exitDy=0;dashed=1;" edge="1" parent="1" source="Yq4_w4Ubh7RNNqfslYi_-37">
          <mxGeometry width="50" height="50" relative="1" as="geometry">
            <mxPoint x="20" y="320" as="sourcePoint" />
            <mxPoint x="370" y="180" as="targetPoint" />
          </mxGeometry>
        </mxCell>
        <mxCell id="Yq4_w4Ubh7RNNqfslYi_-40" value="" style="endArrow=classic;html=1;rounded=0;fontFamily=Times New Roman;fontSize=25;strokeWidth=3;fillColor=#d5e8d4;strokeColor=#82b366;dashed=1;" edge="1" parent="1">
          <mxGeometry width="50" height="50" relative="1" as="geometry">
            <mxPoint x="290" y="269" as="sourcePoint" />
            <mxPoint x="380" y="380" as="targetPoint" />
          </mxGeometry>
        </mxCell>
        <mxCell id="Yq4_w4Ubh7RNNqfslYi_-42" value="1.5m" style="endArrow=classic;startArrow=classic;html=1;rounded=0;fontFamily=Times New Roman;fontSize=25;strokeWidth=3;" edge="1" parent="1">
          <mxGeometry width="50" height="50" relative="1" as="geometry">
            <mxPoint x="290" y="380" as="sourcePoint" />
            <mxPoint x="290" y="270" as="targetPoint" />
          </mxGeometry>
        </mxCell>
        <mxCell id="Yq4_w4Ubh7RNNqfslYi_-43" value="" style="endArrow=classic;html=1;rounded=0;fontFamily=Times New Roman;fontSize=25;strokeWidth=3;fillColor=#fff2cc;strokeColor=#d6b656;dashed=1;dashPattern=1 2;" edge="1" parent="1">
          <mxGeometry width="50" height="50" relative="1" as="geometry">
            <mxPoint x="290" y="266" as="sourcePoint" />
            <mxPoint x="720" y="376" as="targetPoint" />
          </mxGeometry>
        </mxCell>
        <mxCell id="Yq4_w4Ubh7RNNqfslYi_-44" value="" style="endArrow=classic;html=1;rounded=0;fontFamily=Times New Roman;fontSize=25;strokeWidth=3;fillColor=#fff2cc;strokeColor=#d6b656;dashed=1;dashPattern=1 2;" edge="1" parent="1">
          <mxGeometry width="50" height="50" relative="1" as="geometry">
            <mxPoint x="300" y="270" as="sourcePoint" />
            <mxPoint x="710" y="190" as="targetPoint" />
          </mxGeometry>
        </mxCell>
        <mxCell id="Yq4_w4Ubh7RNNqfslYi_-45" value="" style="endArrow=none;dashed=1;html=1;strokeWidth=2;rounded=0;fontFamily=Times New Roman;fontSize=25;strokeColor=#FF0000;shape=link;" edge="1" parent="1">
          <mxGeometry width="50" height="50" relative="1" as="geometry">
            <mxPoint x="379.84" y="390" as="sourcePoint" />
            <mxPoint x="379.5" y="170" as="targetPoint" />
          </mxGeometry>
        </mxCell>
        <mxCell id="Yq4_w4Ubh7RNNqfslYi_-46" value="&lt;font style=&quot;font-size: 18px&quot; face=&quot;Helvetica&quot; color=&quot;#3333ff&quot;&gt;输电线最近可视距离值&lt;/font&gt;" style="edgeLabel;html=1;align=center;verticalAlign=middle;resizable=0;points=[];fontSize=18;fontFamily=Times New Roman;rotation=-90;labelBackgroundColor=none;fontStyle=0;fontColor=#00CC00;" vertex="1" connectable="0" parent="Yq4_w4Ubh7RNNqfslYi_-45">
          <mxGeometry x="0.7603" y="-1" relative="1" as="geometry">
            <mxPoint x="9" y="83" as="offset" />
          </mxGeometry>
        </mxCell>
        <mxCell id="Yq4_w4Ubh7RNNqfslYi_-47" value="" style="endArrow=classic;startArrow=classic;html=1;rounded=0;fontFamily=Times New Roman;fontSize=12;strokeColor=#FF0000;strokeWidth=3;" edge="1" parent="1">
          <mxGeometry width="50" height="50" relative="1" as="geometry">
            <mxPoint x="290" y="170" as="sourcePoint" />
            <mxPoint x="380" y="170" as="targetPoint" />
          </mxGeometry>
        </mxCell>
        <mxCell id="Yq4_w4Ubh7RNNqfslYi_-48" value="1.5m" style="edgeLabel;html=1;align=center;verticalAlign=middle;resizable=0;points=[];fontSize=12;fontFamily=Times New Roman;" vertex="1" connectable="0" parent="Yq4_w4Ubh7RNNqfslYi_-47">
          <mxGeometry x="0.2059" y="2" relative="1" as="geometry">
            <mxPoint x="-15" as="offset" />
          </mxGeometry>
        </mxCell>
        <mxCell id="Yq4_w4Ubh7RNNqfslYi_-49" value="" style="endArrow=none;html=1;rounded=0;fontFamily=Times New Roman;fontSize=12;strokeColor=#000000;strokeWidth=3;exitX=-0.001;exitY=1.025;exitDx=0;exitDy=0;exitPerimeter=0;" edge="1" parent="1">
          <mxGeometry width="50" height="50" relative="1" as="geometry">
            <mxPoint x="288.97" y="269.25" as="sourcePoint" />
            <mxPoint x="289" y="170" as="targetPoint" />
            <Array as="points">
              <mxPoint x="289" y="193" />
              <mxPoint x="289" y="183" />
            </Array>
          </mxGeometry>
        </mxCell>
        <mxCell id="Yq4_w4Ubh7RNNqfslYi_-50" value="&lt;font style=&quot;font-size: 16px&quot; color=&quot;#3333ff&quot;&gt;配电线路安全高度警戒线高度：&lt;b&gt;1.5m&lt;/b&gt;&lt;/font&gt;" style="text;html=1;strokeColor=none;fillColor=none;align=center;verticalAlign=middle;whiteSpace=wrap;rounded=0;labelBackgroundColor=none;fontFamily=Times New Roman;fontSize=12;" vertex="1" parent="1">
          <mxGeometry x="388" y="380" width="270" height="30" as="geometry" />
        </mxCell>
      </root>
    </mxGraphModel>
  </diagram>
</mxfile>
